<svg width="294" height="16" viewBox="0 0 294 16" fill="none" xmlns="http://www.w3.org/2000/svg">
<path d="M-507 7C-507.552 7 -508 7.44772 -508 8C-508 8.55228 -507.552 9 -507 9L-507 7ZM293.707 8.70718C294.098 8.31665 294.098 7.68349 293.707 7.29296L287.343 0.929002C286.953 0.538477 286.319 0.538477 285.929 0.929002C285.538 1.31953 285.538 1.95269 285.929 2.34322L291.586 8.00007L285.929 13.6569C285.538 14.0474 285.538 14.6806 285.929 15.0711C286.319 15.4617 286.953 15.4617 287.343 15.0711L293.707 8.70718ZM-507 9L293 9.00007L293 7.00007L-507 7L-507 9Z" fill="white"/>
</svg>
