<svg width="372" height="173" viewBox="0 0 372 173" fill="none" xmlns="http://www.w3.org/2000/svg">
<g clip-path="url(#clip0_84_855)">
<path d="M77.8978 24.6855H73.1826V74.2143H77.8978V24.6855Z" fill="white"/>
<path d="M77.8978 24.6855H73.1826V74.2143H77.8978V24.6855Z" stroke="black"/>
<path d="M204.506 74.1948H209.182V24.6855H204.506V46.7611H176.468V24.6855H171.753V74.1948H176.468V51.4568H204.506V74.1948Z" fill="white"/>
<path d="M204.506 74.1948H209.182V24.6855H204.506V46.7611H176.468V24.6855H171.753V74.1948H176.468V51.4568H204.506V74.1948Z" stroke="black"/>
<path d="M226.913 29.4007H242.773V74.1948H247.449V29.4007H263.31V24.6855H226.913V29.4007Z" fill="white"/>
<path d="M226.913 29.4007H242.773V74.1948H247.449V29.4007H263.31V24.6855H226.913V29.4007Z" stroke="black"/>
<path d="M142.488 129.958H165.888V125.243H142.488V108.623H171.383V103.889H137.753V153.359H172.065V148.663H142.488V129.958Z" fill="white"/>
<path d="M142.488 129.958H165.888V125.243H142.488V108.623H171.383V103.889H137.753V153.359H172.065V148.663H142.488V129.958Z" stroke="black"/>
<path d="M212.144 127.718C209.553 126.841 206.883 125.965 204.214 125.166C201.661 124.386 199.479 123.276 197.726 121.873C196.05 120.509 195.232 118.795 195.232 116.593C195.232 114.06 196.167 112.034 198.096 110.397C200.025 108.76 202.792 107.922 206.299 107.922C207.663 107.922 208.968 108.098 210.215 108.429C211.462 108.76 212.495 109.13 213.255 109.559C214.034 109.968 214.774 110.455 215.437 110.981C215.54 111.064 215.637 111.141 215.729 111.215C216.248 111.629 216.596 111.907 216.762 112.072C216.937 112.248 217.054 112.384 217.132 112.501L217.561 113.144L220.912 109.754L219.996 108.721C219.606 108.254 218.983 107.728 218.126 107.123C217.307 106.539 216.353 105.954 215.3 105.409C214.229 104.844 212.884 104.337 211.287 103.909C209.689 103.48 208.013 103.266 206.299 103.266C201.661 103.266 197.823 104.571 194.92 107.143C191.997 109.734 190.497 112.93 190.497 116.632C190.497 119.808 191.491 122.458 193.42 124.503C195.329 126.491 197.667 127.972 200.376 128.907C202.967 129.784 205.636 130.66 208.306 131.459C210.858 132.239 213.04 133.349 214.813 134.752C216.508 136.096 217.327 137.831 217.327 140.013C217.327 142.857 216.353 145.079 214.346 146.793C212.339 148.508 209.377 149.365 205.558 149.365C203.883 149.365 202.266 149.151 200.765 148.742C199.265 148.313 198.037 147.845 197.122 147.319C196.206 146.793 195.349 146.189 194.569 145.507C193.595 144.67 193.244 144.28 193.108 144.104C192.877 143.82 192.776 143.649 192.715 143.548C192.709 143.538 192.704 143.529 192.699 143.52L192.309 142.741L188.88 146.131L189.854 147.319C190.263 147.865 190.906 148.508 191.861 149.248C192.777 149.989 193.848 150.71 195.037 151.392C196.245 152.093 197.804 152.716 199.694 153.243C201.564 153.749 203.551 154.022 205.578 154.022C210.585 154.022 214.599 152.697 217.561 150.086C220.542 147.456 222.042 144.046 222.042 139.993C222.042 136.817 221.048 134.168 219.119 132.122C217.21 130.134 214.852 128.654 212.144 127.718Z" fill="white"/>
<path d="M212.144 127.718C209.553 126.841 206.883 125.965 204.214 125.166C201.661 124.386 199.479 123.276 197.726 121.873C196.05 120.509 195.232 118.795 195.232 116.593C195.232 114.06 196.167 112.034 198.096 110.397C200.025 108.76 202.792 107.922 206.299 107.922C207.663 107.922 208.968 108.098 210.215 108.429C211.462 108.76 212.495 109.13 213.255 109.559C214.034 109.968 214.774 110.455 215.437 110.981C215.54 111.064 215.637 111.141 215.729 111.215C216.248 111.629 216.596 111.907 216.762 112.072C216.937 112.248 217.054 112.384 217.132 112.501L217.561 113.144L220.912 109.754L219.996 108.721C219.606 108.254 218.983 107.728 218.126 107.123C217.307 106.539 216.353 105.954 215.3 105.409C214.229 104.844 212.884 104.337 211.287 103.909C209.689 103.48 208.013 103.266 206.299 103.266C201.661 103.266 197.823 104.571 194.92 107.143C191.997 109.734 190.497 112.93 190.497 116.632C190.497 119.808 191.491 122.458 193.42 124.503C195.329 126.491 197.667 127.972 200.376 128.907C202.967 129.784 205.636 130.66 208.306 131.459C210.858 132.239 213.04 133.349 214.813 134.752C216.508 136.096 217.327 137.831 217.327 140.013C217.327 142.857 216.353 145.079 214.346 146.793C212.339 148.508 209.377 149.365 205.558 149.365C203.883 149.365 202.266 149.151 200.765 148.742C199.265 148.313 198.037 147.845 197.122 147.319C196.206 146.793 195.349 146.189 194.569 145.507C193.595 144.67 193.244 144.28 193.108 144.104C192.877 143.82 192.776 143.649 192.715 143.548C192.709 143.538 192.704 143.529 192.699 143.52L192.309 142.741L188.88 146.131L189.854 147.319C190.263 147.865 190.906 148.508 191.861 149.248C192.777 149.989 193.848 150.71 195.037 151.392C196.245 152.093 197.804 152.716 199.694 153.243C201.564 153.749 203.551 154.022 205.578 154.022C210.585 154.022 214.599 152.697 217.561 150.086C220.542 147.456 222.042 144.046 222.042 139.993C222.042 136.817 221.048 134.168 219.119 132.122C217.21 130.134 214.852 128.654 212.144 127.718Z" stroke="black"/>
<path d="M247.449 103.889H242.772V153.34H247.449V103.889Z" fill="white"/>
<path d="M247.449 103.889H242.772V153.34H247.449V103.889Z" stroke="black"/>
<path d="M147.67 61.8431C149.872 57.0695 149.482 49.724 149.463 49.4122L149.424 48.8277H130.66V53.5039H144.553H144.806C144.767 55.842 144.514 58.0047 142.819 61.2391C141.162 64.3955 138.902 66.0907 137.11 67.2402C135.395 68.3313 133.797 68.799 132.765 69.0912L132.589 69.1497C130.777 69.6758 128.848 69.9485 126.881 69.9485C121.289 69.9485 116.476 67.9612 112.599 64.0448C108.721 60.1285 106.753 55.2185 106.753 49.4902C106.753 43.7618 108.721 38.8713 112.599 34.9355C116.476 31.0192 121.269 29.0318 126.881 29.0318C128.926 29.0318 130.933 29.3435 132.823 29.967C134.733 30.5905 136.311 31.2724 137.48 32.0128C138.668 32.7532 139.76 33.6105 140.773 34.6042C142.02 35.8317 142.526 36.4163 142.702 36.6696C142.994 37.0787 143.189 37.371 143.325 37.5853L143.715 38.2283L147.086 35.3252L145.995 33.7469C145.488 33.0455 144.65 32.1882 143.54 31.1555C142.448 30.1618 141.143 29.1292 139.662 28.0965C138.162 27.0639 136.272 26.1676 133.992 25.4662C131.732 24.7452 129.336 24.3945 126.861 24.3945C120.061 24.3945 114.157 26.8495 109.345 31.7206C104.532 36.5721 102.097 42.5538 102.097 49.4902C102.097 56.4265 104.532 62.4082 109.345 67.2597C114.157 72.1308 120.061 74.5858 126.861 74.5858H127.562C128.517 74.5663 131.05 74.3909 134.148 73.4557C136.116 72.8517 138.006 72.0333 139.799 70.9812C143.15 68.8574 145.858 65.7205 147.67 61.8431Z" fill="white"/>
<path d="M147.67 61.8431C149.872 57.0695 149.482 49.724 149.463 49.4122L149.424 48.8277H130.66V53.5039H144.553H144.806C144.767 55.842 144.514 58.0047 142.819 61.2391C141.162 64.3955 138.902 66.0907 137.11 67.2402C135.395 68.3313 133.797 68.799 132.765 69.0912L132.589 69.1497C130.777 69.6758 128.848 69.9485 126.881 69.9485C121.289 69.9485 116.476 67.9612 112.599 64.0448C108.721 60.1285 106.753 55.2185 106.753 49.4902C106.753 43.7618 108.721 38.8713 112.599 34.9355C116.476 31.0192 121.269 29.0318 126.881 29.0318C128.926 29.0318 130.933 29.3435 132.823 29.967C134.733 30.5905 136.311 31.2724 137.48 32.0128C138.668 32.7532 139.76 33.6105 140.773 34.6042C142.02 35.8317 142.526 36.4163 142.702 36.6696C142.994 37.0787 143.189 37.371 143.325 37.5853L143.715 38.2283L147.086 35.3252L145.995 33.7469C145.488 33.0455 144.65 32.1882 143.54 31.1555C142.448 30.1618 141.143 29.1292 139.662 28.0965C138.162 27.0639 136.272 26.1676 133.992 25.4662C131.732 24.7452 129.336 24.3945 126.861 24.3945C120.061 24.3945 114.157 26.8495 109.345 31.7206C104.532 36.5721 102.097 42.5538 102.097 49.4902C102.097 56.4265 104.532 62.4082 109.345 67.2597C114.157 72.1308 120.061 74.5858 126.861 74.5858H127.562C128.517 74.5663 131.05 74.3909 134.148 73.4557C136.116 72.8517 138.006 72.0333 139.799 70.9812C143.15 68.8574 145.858 65.7205 147.67 61.8431Z" stroke="black"/>
<path d="M313.656 128.674H294.659V133.409H308.726H308.98C308.941 135.767 308.687 137.968 306.953 141.222C305.258 144.418 302.978 146.132 301.186 147.282C299.496 148.364 297.936 148.817 296.866 149.128C296.838 149.136 296.81 149.144 296.782 149.152L296.588 149.211C294.756 149.737 292.808 150.01 290.82 150.01C285.15 150.01 280.279 148.003 276.363 144.028C272.427 140.053 270.44 135.104 270.44 129.298C270.44 123.492 272.427 118.543 276.363 114.568C280.279 110.593 285.15 108.586 290.82 108.586C292.886 108.586 294.912 108.898 296.841 109.522C298.77 110.164 300.368 110.846 301.556 111.587C302.764 112.327 303.875 113.204 304.888 114.198C305.92 115.191 306.563 115.912 306.856 116.302C307.148 116.711 307.362 117.023 307.479 117.237L307.869 117.88L311.298 114.938L310.188 113.34C309.661 112.639 308.824 111.762 307.694 110.73C306.563 109.697 305.239 108.664 303.758 107.632C302.238 106.579 300.309 105.683 298.029 104.962C295.73 104.241 293.314 103.871 290.82 103.871C283.923 103.871 277.961 106.365 273.09 111.275C268.219 116.185 265.744 122.245 265.744 129.259C265.744 136.273 268.219 142.333 273.09 147.243C277.961 152.172 283.923 154.647 290.82 154.647H291.541C292.496 154.627 295.048 154.471 298.224 153.497C300.212 152.893 302.141 152.055 303.953 150.984C307.323 148.899 310.071 145.723 311.883 141.787C314.123 136.955 313.714 129.532 313.695 129.201L313.656 128.674Z" fill="white"/>
<path d="M313.656 128.674H294.659V133.409H308.726H308.98C308.941 135.767 308.687 137.968 306.953 141.222C305.258 144.418 302.978 146.132 301.186 147.282C299.496 148.364 297.936 148.817 296.866 149.128C296.838 149.136 296.81 149.144 296.782 149.152L296.588 149.211C294.756 149.737 292.808 150.01 290.82 150.01C285.15 150.01 280.279 148.003 276.363 144.028C272.427 140.053 270.44 135.104 270.44 129.298C270.44 123.492 272.427 118.543 276.363 114.568C280.279 110.593 285.15 108.586 290.82 108.586C292.886 108.586 294.912 108.898 296.841 109.522C298.77 110.164 300.368 110.846 301.556 111.587C302.764 112.327 303.875 113.204 304.888 114.198C305.92 115.191 306.563 115.912 306.856 116.302C307.148 116.711 307.362 117.023 307.479 117.237L307.869 117.88L311.298 114.938L310.188 113.34C309.661 112.639 308.824 111.762 307.694 110.73C306.563 109.697 305.239 108.664 303.758 107.632C302.238 106.579 300.309 105.683 298.029 104.962C295.73 104.241 293.314 103.871 290.82 103.871C283.923 103.871 277.961 106.365 273.09 111.275C268.219 116.185 265.744 122.245 265.744 129.259C265.744 136.273 268.219 142.333 273.09 147.243C277.961 152.172 283.923 154.647 290.82 154.647H291.541C292.496 154.627 295.048 154.471 298.224 153.497C300.212 152.893 302.141 152.055 303.953 150.984C307.323 148.899 310.071 145.723 311.883 141.787C314.123 136.955 313.714 129.532 313.695 129.201L313.656 128.674Z" stroke="black"/>
<path d="M366.887 104.572V144.982L335.809 104.572H332.107V154.023H336.842V113.613L367.88 154.023H371.582V104.572H366.887Z" fill="white"/>
<path d="M366.887 104.572V144.982L335.809 104.572H332.107V154.023H336.842V113.613L367.88 154.023H371.582V104.572H366.887Z" stroke="black"/>
<path d="M31.5449 41.9689C32.6555 41.6961 33.9999 41.0726 35.5976 40.1374C37.1953 39.1827 38.8125 38.0136 40.4297 36.5913C42.0468 35.1689 43.4302 33.1621 44.5408 30.5317C45.6709 27.9013 46.2165 24.9787 46.2165 21.7443C46.2165 15.6068 44.0537 10.4435 39.7477 6.2739C35.4612 2.08481 30.0251 0 23.4784 0H0L3.02005 5.33866H23.4784C28.7197 5.33866 32.9477 6.87791 36.1626 9.93693C39.3775 12.9959 40.9752 16.9512 40.9752 21.7638C40.9752 26.5764 39.3775 30.5122 36.1626 33.5907C32.9477 36.6692 28.7197 38.189 23.4784 38.189H21.6274L42.0079 74.2152H47.8531L29.8498 42.4365L31.5449 41.9689Z" fill="white"/>
<path d="M31.5449 41.9689C32.6555 41.6961 33.9999 41.0726 35.5976 40.1374C37.1953 39.1827 38.8125 38.0136 40.4297 36.5913C42.0468 35.1689 43.4302 33.1621 44.5408 30.5317C45.6709 27.9013 46.2165 24.9787 46.2165 21.7443C46.2165 15.6068 44.0537 10.4435 39.7477 6.2739C35.4612 2.08481 30.0251 0 23.4784 0H0L3.02005 5.33866H23.4784C28.7197 5.33866 32.9477 6.87791 36.1626 9.93693C39.3775 12.9959 40.9752 16.9512 40.9752 21.7638C40.9752 26.5764 39.3775 30.5122 36.1626 33.5907C32.9477 36.6692 28.7197 38.189 23.4784 38.189H21.6274L42.0079 74.2152H47.8531L29.8498 42.4365L31.5449 41.9689Z" stroke="black"/>
<path d="M105.098 114.646C97.6745 107.456 88.439 103.852 77.411 103.852H58.7451L61.7652 109.19H63.4213H73.2219H77.411C87.2115 109.19 95.239 112.21 101.493 118.27C107.767 124.329 110.885 131.928 110.885 141.047C110.885 150.185 107.748 157.784 101.493 163.863C99.6229 165.675 97.5576 167.214 95.3754 168.481L97.9278 172.981C100.5 171.481 102.916 169.65 105.137 167.467C112.541 160.278 116.243 151.471 116.243 141.047C116.243 130.623 112.521 121.855 105.098 114.646Z" fill="white"/>
<path d="M105.098 114.646C97.6745 107.456 88.439 103.852 77.411 103.852H58.7451L61.7652 109.19H63.4213H73.2219H77.411C87.2115 109.19 95.239 112.21 101.493 118.27C107.767 124.329 110.885 131.928 110.885 141.047C110.885 150.185 107.748 157.784 101.493 163.863C99.6229 165.675 97.5576 167.214 95.3754 168.481L97.9278 172.981C100.5 171.481 102.916 169.65 105.137 167.467C112.541 160.278 116.243 151.471 116.243 141.047C116.243 130.623 112.521 121.855 105.098 114.646Z" stroke="black"/>
</g>
<defs>
<clipPath id="clip0_84_855">
<rect width="371.583" height="173" fill="white"/>
</clipPath>
</defs>
</svg>
