<svg xmlns="http://www.w3.org/2000/svg" width="97" height="97" viewBox="0 0 97 97" fill="none">
  <g filter="url(#filter0_d_210_1356)">
    <path d="M57.7185 80.8315H29.1192C16.3734 80.8315 6 70.4581 6 57.7123V29.1192C6 16.3734 16.3672 6 29.1192 6H57.7185C70.4643 6 80.8377 16.3734 80.8377 29.1192V57.7185C80.8315 70.4643 70.4643 80.8315 57.7185 80.8315ZM29.1192 14.3407C20.97 14.3407 14.3407 20.97 14.3407 29.1192V57.7185C14.3407 65.8677 20.97 72.497 29.1192 72.497H57.7185C65.8677 72.497 72.497 65.8677 72.497 57.7185V29.1192C72.497 20.97 65.8677 14.3407 57.7185 14.3407H29.1192Z" fill="white"/>
    <path d="M43.4161 62.5431C32.8697 62.5431 24.2881 53.9615 24.2881 43.4151C24.2881 32.8688 32.8697 24.2871 43.4161 24.2871C53.9624 24.2871 62.5441 32.8688 62.5441 43.4151C62.5441 53.9615 53.9624 62.5431 43.4161 62.5431ZM43.4161 31.7999C37.0092 31.7999 31.8009 37.0144 31.8009 43.4213C31.8009 49.8282 37.0154 55.0427 43.4161 55.0427C49.8168 55.0427 55.0313 49.8282 55.0313 43.4213C55.0375 37.0082 49.823 31.7999 43.4161 31.7999Z" fill="white"/>
    <path d="M63.5076 26.4117C65.2922 26.4117 66.7389 24.965 66.7389 23.1805C66.7389 21.3959 65.2922 19.9492 63.5076 19.9492C61.723 19.9492 60.2764 21.3959 60.2764 23.1805C60.2764 24.965 61.723 26.4117 63.5076 26.4117Z" fill="white"/>
  </g>
  <defs>
    <filter id="filter0_d_210_1356" x="0" y="0" width="96.8379" height="96.832" filterUnits="userSpaceOnUse" color-interpolation-filters="sRGB">
      <feFlood flood-opacity="0" result="BackgroundImageFix"/>
      <feColorMatrix in="SourceAlpha" type="matrix" values="0 0 0 0 0 0 0 0 0 0 0 0 0 0 0 0 0 0 127 0" result="hardAlpha"/>
      <feOffset dx="5" dy="5"/>
      <feGaussianBlur stdDeviation="5.5"/>
      <feComposite in2="hardAlpha" operator="out"/>
      <feColorMatrix type="matrix" values="0 0 0 0 0 0 0 0 0 0 0 0 0 0 0 0 0 0 0.68 0"/>
      <feBlend mode="normal" in2="BackgroundImageFix" result="effect1_dropShadow_210_1356"/>
      <feBlend mode="normal" in="SourceGraphic" in2="effect1_dropShadow_210_1356" result="shape"/>
    </filter>
  </defs>
</svg>