<svg width="61" height="44" viewBox="0 0 61 44" fill="none" xmlns="http://www.w3.org/2000/svg">
<g filter="url(#filter0_d_1610_145)">
<path d="M16.9974 2.52604L17.4765 2.56175C19.6718 2.65993 21.4838 3.35616 22.8602 4.70397C24.3411 6.1589 25.0903 8.02442 25.0903 10.3095C25.0903 12.5856 24.3498 14.46 22.8602 15.915C21.4838 17.2717 18.8529 17.9501 16.135 18.0036L17.4765 20.6011L25.5694 35.1682H28.2699L19.9418 20.1102L20.7346 19.887C21.2486 19.762 21.8758 19.4675 22.6162 19.0212C23.3567 18.5749 24.1059 18.0126 24.8551 17.3431C25.6042 16.6737 26.2402 15.7186 26.7542 14.4779C27.2768 13.2372 27.5295 11.8447 27.5295 10.3095C27.5295 7.39961 26.5364 4.9539 24.5415 2.97234C22.5378 0.99078 20.029 0 16.9974 0H4L5.63774 2.52604H6.46532H16.9974Z" fill="white"/>
</g>
<g filter="url(#filter1_d_1610_145)">
<path d="M51.5811 5.39127C47.9658 1.80304 43.4708 0 38.1045 0H27.4854L28.9663 2.52604H30.0029H35.9702H38.0174C42.7826 2.52604 46.7811 4.18627 49.8214 7.20324C52.8703 10.2202 54.4558 14.0137 54.4558 18.566C54.4558 23.1271 52.8703 26.9117 49.8214 29.9465C48.5669 31.1962 47.1557 32.1691 45.6138 32.901L46.8595 35.1593C48.5756 34.3024 50.1611 33.1688 51.5898 31.7407C55.1963 28.1524 56.9995 23.7609 56.9995 18.566C56.9995 13.3711 55.1963 8.9795 51.5811 5.39127Z" fill="white"/>
</g>
<defs>
<filter id="filter0_d_1610_145" x="0" y="0" width="32.2695" height="43.168" filterUnits="userSpaceOnUse" color-interpolation-filters="sRGB">
<feFlood flood-opacity="0" result="BackgroundImageFix"/>
<feColorMatrix in="SourceAlpha" type="matrix" values="0 0 0 0 0 0 0 0 0 0 0 0 0 0 0 0 0 0 127 0" result="hardAlpha"/>
<feOffset dy="4"/>
<feGaussianBlur stdDeviation="2"/>
<feComposite in2="hardAlpha" operator="out"/>
<feColorMatrix type="matrix" values="0 0 0 0 0 0 0 0 0 0 0 0 0 0 0 0 0 0 0.25 0"/>
<feBlend mode="normal" in2="BackgroundImageFix" result="effect1_dropShadow_1610_145"/>
<feBlend mode="normal" in="SourceGraphic" in2="effect1_dropShadow_1610_145" result="shape"/>
</filter>
<filter id="filter1_d_1610_145" x="23.4854" y="0" width="37.5146" height="43.1602" filterUnits="userSpaceOnUse" color-interpolation-filters="sRGB">
<feFlood flood-opacity="0" result="BackgroundImageFix"/>
<feColorMatrix in="SourceAlpha" type="matrix" values="0 0 0 0 0 0 0 0 0 0 0 0 0 0 0 0 0 0 127 0" result="hardAlpha"/>
<feOffset dy="4"/>
<feGaussianBlur stdDeviation="2"/>
<feComposite in2="hardAlpha" operator="out"/>
<feColorMatrix type="matrix" values="0 0 0 0 0 0 0 0 0 0 0 0 0 0 0 0 0 0 0.25 0"/>
<feBlend mode="normal" in2="BackgroundImageFix" result="effect1_dropShadow_1610_145"/>
<feBlend mode="normal" in="SourceGraphic" in2="effect1_dropShadow_1610_145" result="shape"/>
</filter>
</defs>
</svg>
