<svg xmlns="http://www.w3.org/2000/svg" width="87" height="105" viewBox="0 0 87 105" fill="none">
  <g filter="url(#filter0_d_210_1348)">
    <path d="M25.065 44.9282C25.065 44.9282 21.8894 35.185 25.6334 29.8532C29.3775 24.5213 32.5469 23.8479 36.6246 24.8673C40.7023 25.8867 41.7217 31.2124 40.8196 35.7473C39.9114 40.2821 37.5328 48.3263 37.4216 49.5743C37.3104 50.8223 37.0818 54.449 40.5972 55.9194C44.1127 57.3898 49.7782 55.5796 52.7252 49.5743C55.6723 43.569 56.8029 35.5249 56.3519 32.4604C55.9009 29.4022 55.4437 21.8091 46.3801 18.4048C37.3166 15.0068 30.1188 18.3677 28.3642 19.4489C25.7384 21.0615 20.7773 24.7314 18.7446 29.6122C17.4781 32.6519 17.0085 36.155 17.3298 38.7437C17.6819 41.6537 19.1833 44.6996 20.4313 46.0032C21.6793 47.3069 21.2221 48.6661 21.0553 49.6855C20.8823 50.7049 20.5054 53.5407 19.5231 54.5972C18.5407 55.6537 16.4586 55.7897 15.6307 55.3757C14.7967 54.9618 10.8796 52.9167 8.57513 48.9194C6.1656 44.7429 5.14 38.268 6.84521 29.8779C8.54424 21.4939 15.5628 13.975 23.0385 10.2433C30.4648 6.53012 39.4357 4.67046 47.8258 7.08618C56.2098 9.50189 63.6114 14.0923 67.689 22.9335C71.7667 31.7746 70.0677 43.2168 68.1401 48.5425C66.2124 53.8682 62.7402 59.9538 56.1665 63.6546C49.5928 67.3554 43.8532 67.2813 41.9626 66.8303C40.0721 66.3793 35.6917 65.02 33.727 62.8267C33.727 62.8267 30.9344 73.7067 29.7976 76.6538C28.6669 79.6008 26.7208 84.4137 25.0218 86.2301C23.3227 88.0404 22.5257 88.6644 20.9441 88.442C19.3563 88.2134 18.448 86.7985 18.17 82.5478C17.8858 78.2972 19.9803 66.0765 20.8143 62.524C21.6237 58.9777 24.6449 46.5902 25.065 44.9282Z" fill="white"/>
  </g>
  <defs>
    <filter id="filter0_d_210_1348" x="0" y="0" width="86.1899" height="104.484" filterUnits="userSpaceOnUse" color-interpolation-filters="sRGB">
      <feFlood flood-opacity="0" result="BackgroundImageFix"/>
      <feColorMatrix in="SourceAlpha" type="matrix" values="0 0 0 0 0 0 0 0 0 0 0 0 0 0 0 0 0 0 127 0" result="hardAlpha"/>
      <feOffset dx="5" dy="5"/>
      <feGaussianBlur stdDeviation="5.5"/>
      <feComposite in2="hardAlpha" operator="out"/>
      <feColorMatrix type="matrix" values="0 0 0 0 0 0 0 0 0 0 0 0 0 0 0 0 0 0 0.68 0"/>
      <feBlend mode="normal" in2="BackgroundImageFix" result="effect1_dropShadow_210_1348"/>
      <feBlend mode="normal" in="SourceGraphic" in2="effect1_dropShadow_210_1348" result="shape"/>
    </filter>
  </defs>
</svg>