<svg xmlns="http://www.w3.org/2000/svg" width="95" height="68" viewBox="0 0 95 68" fill="none">
  <g filter="url(#filter0_d_210_1350)">
    <path d="M6.69922 6.29038C6.69922 6.12974 6.82896 6 8.36118 6H25.8396C27.9834 6 30.603 6.14828 32.333 6.44484C34.0629 6.7414 35.6075 7.36541 36.9729 8.31069C38.3383 9.25596 39.4751 10.5163 40.3833 12.0856C41.2915 13.6549 41.7487 15.4157 41.7487 17.3681C41.7487 19.481 41.1865 21.421 40.0682 23.188C39.0735 24.7573 37.7637 25.9744 36.1388 26.8456C35.9102 26.9691 35.9349 27.2904 36.182 27.3769C38.5669 28.1986 40.4204 29.4899 41.7549 31.2569C43.2068 33.1845 43.9358 35.4581 43.9358 38.0653C43.9358 40.1165 43.4663 42.1121 42.5272 44.0521C41.5881 45.9921 40.303 47.5429 38.6781 48.7044C37.0532 49.8659 35.0452 50.5764 32.6604 50.8482C31.1653 51.0151 27.5571 51.1139 23.2138 51.1572H8.36118C6.82896 51.1572 6.69922 51.0274 6.69922 50.8668V6.29038ZM17.0479 13.8094V23.6637C17.0479 23.8244 17.1776 23.9541 17.3382 23.9541H21.558C25.0549 23.9541 27.2297 23.9047 28.0761 23.7997C29.6145 23.6143 30.8193 23.0768 31.7028 22.181C32.5801 21.2851 33.0249 20.1112 33.0249 18.6531C33.0249 17.2569 32.6481 16.1262 31.8881 15.2489C31.1282 14.3778 30.0037 13.8464 28.5086 13.6611C27.6189 13.5561 25.0611 13.5066 20.8352 13.5066H17.3444C17.1776 13.5128 17.0479 13.6425 17.0479 13.8094ZM17.0479 31.7635V43.2551C17.0479 43.4157 17.1776 43.5455 17.3382 43.5455H23.9799C27.2173 43.5455 29.2685 43.4528 30.1335 43.2675C31.468 43.0203 32.5554 42.421 33.3956 41.4634C34.2359 40.5058 34.656 39.233 34.656 37.6267C34.656 36.2675 34.3347 35.1245 33.686 34.1792C33.0373 33.2339 32.1044 32.5481 30.8811 32.1156C29.6578 31.6832 27.0011 31.4669 22.9234 31.4669H17.3382C17.1776 31.4731 17.0479 31.6029 17.0479 31.7635Z" fill="white"/>
    <path d="M69.0876 39.862L77.4592 39.9608C77.6693 39.9979 77.7311 40.2018 77.7249 40.4056C77.6137 43.2477 74.7408 47.0164 72.3374 48.629C69.829 50.3095 66.6966 51.1497 62.9279 51.1497C56.972 51.1497 52.5607 49.2591 49.7002 45.4842C47.4389 42.4568 46.3145 38.6387 46.3145 34.0235C46.3145 28.5124 47.7972 24.2 50.769 21.0738C53.7346 17.9537 57.491 16.3906 62.032 16.3906C67.1291 16.3906 71.1512 18.0217 74.0982 21.29C76.9711 24.4718 78.4354 27.1656 78.3304 35.9758C78.3304 36.155 78.1759 36.3094 77.9906 36.3094H55.9588C55.7672 36.3094 55.6066 36.4701 55.619 36.6616C55.7364 39.102 56.453 40.6095 57.7875 41.9935C59.1838 43.4454 60.9076 43.8593 62.9958 43.8593C64.9173 43.8593 67.8705 43.2724 68.7169 40.0906C68.7602 39.9361 68.927 39.8311 69.0876 39.862ZM68.9641 30.0755C69.1556 30.0755 69.3039 29.9149 69.3039 29.7234C69.3039 28.0429 68.5131 26.3747 67.2836 25.1144C65.9923 23.786 64.423 23.125 62.5757 23.125C60.5925 23.125 58.9614 23.8231 57.6702 25.2194C56.4407 26.5539 55.897 27.8452 55.7672 29.7296C55.7549 29.9149 55.9217 30.0694 56.1132 30.0694H68.9641V30.0755Z" fill="white"/>
    <path d="M69.9463 12.2503H54.6983C53.9754 12.2503 53.3823 11.6634 53.3823 10.9344V8.71636C53.3823 7.9935 53.9693 7.40039 54.6983 7.40039H69.9463C70.6692 7.40039 71.2623 7.98732 71.2623 8.71636V10.9344C71.2623 11.6634 70.6754 12.2503 69.9463 12.2503Z" fill="white"/>
  </g>
  <defs>
    <filter id="filter0_d_210_1350" x="0.699219" y="0" width="93.6362" height="67.1562" filterUnits="userSpaceOnUse" color-interpolation-filters="sRGB">
      <feFlood flood-opacity="0" result="BackgroundImageFix"/>
      <feColorMatrix in="SourceAlpha" type="matrix" values="0 0 0 0 0 0 0 0 0 0 0 0 0 0 0 0 0 0 127 0" result="hardAlpha"/>
      <feOffset dx="5" dy="5"/>
      <feGaussianBlur stdDeviation="5.5"/>
      <feComposite in2="hardAlpha" operator="out"/>
      <feColorMatrix type="matrix" values="0 0 0 0 0 0 0 0 0 0 0 0 0 0 0 0 0 0 0.68 0"/>
      <feBlend mode="normal" in2="BackgroundImageFix" result="effect1_dropShadow_210_1350"/>
      <feBlend mode="normal" in="SourceGraphic" in2="effect1_dropShadow_210_1350" result="shape"/>
    </filter>
  </defs>
</svg>