<svg width="65" height="65" viewBox="0 0 65 65" fill="none" xmlns="http://www.w3.org/2000/svg">
<path d="M32.25 47C32.25 47.4142 32.5858 47.75 33 47.75C33.4142 47.75 33.75 47.4142 33.75 47L32.25 47ZM33.5303 16.4697C33.2374 16.1768 32.7626 16.1768 32.4697 16.4697L27.6967 21.2426C27.4038 21.5355 27.4038 22.0104 27.6967 22.3033C27.9896 22.5962 28.4645 22.5962 28.7574 22.3033L33 18.0607L37.2426 22.3033C37.5355 22.5962 38.0104 22.5962 38.3033 22.3033C38.5962 22.0104 38.5962 21.5355 38.3033 21.2426L33.5303 16.4697ZM33.75 47L33.75 17L32.25 17L32.25 47L33.75 47Z" fill="white"/>
</svg>
